{"title":"Persons.Unknown.S01E09.720p.HDTV.x264-DIMENSION","uid":5748244,"size":1172920117,"categoryP":"video","categoryS":"hd___tv_shows","magnet":"?xt=urn:btih:096cab3a62a2f8dba94354d99b615b6cae5e6fcd&amp;dn=Persons.Unknown.S01E09.720p.HDTV.x264-DIMENSION&amp;tr=udp%3A%2F%2Ftracker.openbittorrent.com%3A80&amp;tr=udp%3A%2F%2Fopen.demonii.com%3A1337&amp;tr=udp%3A%2F%2Ftracker.coppersurfer.tk%3A6969&amp;tr=udp%3A%2F%2Fexodus.desync.com%3A6969","seeders":0,"leechers":1,"uploader":"insinuendo","files":1,"time":1281304441,"description":"Persons.Unknown.S01E09.720p.HDTV.X264-DIMENSION\nAired 07.08.2010\n\n&quot;Static&quot;\n\nAfter returning to town, Joe's troubles worsen\nas he suffers from frightening side effects\ncaused by his &quot;reeducation.&quot; The rest of the\ngroup is left wondering whether they would\nsimply be better off without him. Concerned by\nthe chaotic mess the town has become, the\nDirector of &quot;The Program&quot; sends a surprising\nnew night manager and second-in-command, Liam\nUlrich (Alan Smyth) to restore order.\nMeanwhile, Renbe (Gerald Kyd) and Kat (Lola\nGlaudini) get raided by local South American\npolice, which ends in Renbe's arrest.\n\nEnjoy :)\n\n\n\nGeneral\nComplete name                    : C:\\Users\\insinuendo\\Downloads\\Persons.Unknown.S01E09.720p.HDTV.X264-DIMENSION.mkv\nFormat                           : Matroska\nFile size                        : 1.09 GiB\nDuration                         : 42mn 57s\nOverall bit rate                 : 3 640 Kbps\nEncoded date                     : UTC 2010-08-07 23:24:52\nWriting application              : mkvmerge v3.0.0 ('Hang up your Hang-Ups') built on Apr 19 2010 11:58:49\nWriting library                  : libebml v0.7.7 + libmatroska v0.8.1\n\nVideo\nID                               : 1\nFormat                           : AVC\nFormat/Info                      : Advanced Video Codec\nFormat profile                   : &lt;a class=&quot;__cf_email__&quot; href=&quot;/cdn-cgi/l/email-protection&quot; data-cfemail=&quot;e2aa8b858aa2aed6ccd3&quot;&gt;[email&amp;#160;protected]&lt;/a&gt;&lt;script data-cfhash='f9e31' type=&quot;text/javascript&quot;&gt;\n/* &lt;![CDATA[ */!function(){try{var t=&quot;currentScript&quot;in document?document.currentScript:function(){for(var t=document.getElementsByTagName(&quot;script&quot;),e=t.length;e--;)if(t[e].getAttribute(&quot;data-cfhash&quot;))return t[e]}();if(t&amp;&amp;t.previousSibling){var e,r,n,i,c=t.previousSibling,a=c.getAttribute(&quot;data-cfemail&quot;);if(a){for(e=&quot;&quot;,r=parseInt(a.substr(0,2),16),n=2;a.length-n;n+=2)i=parseInt(a.substr(n,2),16)^r,e+=String.fromCharCode(i);e=document.createTextNode(e),c.parentNode.replaceChild(e,c)}t.parentNode.removeChild(t);}}catch(u){}}()/* ]]&gt; */&lt;/script&gt;\nFormat settings, CABAC           : Yes\nFormat settings, ReFrames        : 7 frames\nMuxing mode                      : Container profile=&lt;a class=&quot;__cf_email__&quot; href=&quot;/cdn-cgi/l/email-protection&quot; data-cfemail=&quot;b8edd6d3d6d7cfd6f88c9689&quot;&gt;[email&amp;#160;protected]&lt;/a&gt;&lt;script data-cfhash='f9e31' type=&quot;text/javascript&quot;&gt;\n/* &lt;![CDATA[ */!function(){try{var t=&quot;currentScript&quot;in document?document.currentScript:function(){for(var t=document.getElementsByTagName(&quot;script&quot;),e=t.length;e--;)if(t[e].getAttribute(&quot;data-cfhash&quot;))return t[e]}();if(t&amp;&amp;t.previousSibling){var e,r,n,i,c=t.previousSibling,a=c.getAttribute(&quot;data-cfemail&quot;);if(a){for(e=&quot;&quot;,r=parseInt(a.substr(0,2),16),n=2;a.length-n;n+=2)i=parseInt(a.substr(n,2),16)^r,e+=String.fromCharCode(i);e=document.createTextNode(e),c.parentNode.replaceChild(e,c)}t.parentNode.removeChild(t);}}catch(u){}}()/* ]]&gt; */&lt;/script&gt;\nCodec ID                         : V_MPEG4/ISO/AVC\nDuration                         : 42mn 55s\nBit rate                         : 3 184 Kbps\nNominal bit rate                 : 3 254 Kbps\nWidth                            : 1 280 pixels\nHeight                           : 720 pixels\nDisplay aspect ratio             : 16:9\nFrame rate                       : 23.976 fps\nResolution                       : 24 bits\nColorimetry                      : 4:2:0\nScan type                        : Progressive\nBits/(Pixel*Frame)               : 0.144\nStream size                      : 977 MiB (87%)\nWriting library                  : x264 core 102 r1666 d058f37\nLanguage                         : English\n\nAudio\nID                               : 2\nFormat                           : AC-3\nFormat/Info                      : Audio Coding 3\nCodec ID                         : A_AC3\nDuration                         : 42mn 57s\nBit rate mode                    : Constant\nBit rate                         : 384 Kbps\nChannel(s)                       : 6 channels\nChannel positions                : Front: L C R, Surround: L R, LFE\nSampling rate                    : 48.0 KHz\nStream size                      : 118 MiB (11%)\n\n","torrent":{"xt":"urn:btih:096cab3a62a2f8dba94354d99b615b6cae5e6fcd","amp;dn":"Persons.Unknown.S01E09.720p.HDTV.x264-DIMENSION","amp;tr":["udp%3A%2F%2Ftracker.openbittorrent.com%3A80","udp%3A%2F%2Fopen.demonii.com%3A1337","udp%3A%2F%2Ftracker.coppersurfer.tk%3A6969","udp%3A%2F%2Fexodus.desync.com%3A6969"],"infoHash":"096cab3a62a2f8dba94354d99b615b6cae5e6fcd","infoHashBuffer":{"type":"Buffer","data":[9,108,171,58,98,162,248,219,169,67,84,217,155,97,91,108,174,94,111,205]},"announce":[],"urlList":[]}}